<?xml version="1.0" encoding="UTF-8" standalone="no"?>
<!DOCTYPE svg PUBLIC "-//W3C//DTD SVG 1.1//EN"
 "http://www.w3.org/Graphics/SVG/1.1/DTD/svg11.dtd">
<!-- Generated by graphviz version 2.36.0 (20140111.2315)
 -->
<!-- Title: models_diagram Pages: 1 -->
<svg width="787pt" height="1780pt"
 viewBox="0.00 0.00 787.00 1780.00" xmlns="http://www.w3.org/2000/svg" xmlns:xlink="http://www.w3.org/1999/xlink">
<g id="graph0" class="graph" transform="scale(1 1) rotate(0) translate(4 1776)">
<title>models_diagram</title>
<polygon fill="white" stroke="none" points="-4,4 -4,-1776 783,-1776 783,4 -4,4"/>
<!-- DocumentOrder -->
<g id="node1" class="node"><title>DocumentOrder</title>
<path fill="none" stroke="black" d="M11.5,-458C11.5,-458 174.5,-458 174.5,-458 180.5,-458 186.5,-464 186.5,-470 186.5,-470 186.5,-612 186.5,-612 186.5,-618 180.5,-624 174.5,-624 174.5,-624 11.5,-624 11.5,-624 5.5,-624 -0.5,-618 -0.5,-612 -0.5,-612 -0.5,-470 -0.5,-470 -0.5,-464 5.5,-458 11.5,-458"/>
<text text-anchor="middle" x="93" y="-608.8" font-family="Times,serif" font-size="14.00">DocumentOrder</text>
<polyline fill="none" stroke="black" points="-0.5,-601 186.5,-601 "/>
<text text-anchor="start" x="7.5" y="-585.8" font-family="Times,serif" font-size="14.00">id :integer</text>
<text text-anchor="start" x="7.5" y="-570.8" font-family="Times,serif" font-size="14.00">status :text</text>
<text text-anchor="start" x="7.5" y="-555.8" font-family="Times,serif" font-size="14.00">comments :text</text>
<text text-anchor="start" x="7.5" y="-540.8" font-family="Times,serif" font-size="14.00">client_price :text</text>
<text text-anchor="start" x="7.5" y="-525.8" font-family="Times,serif" font-size="14.00">cost :text</text>
<text text-anchor="start" x="7.5" y="-510.8" font-family="Times,serif" font-size="14.00">client_id :integer</text>
<text text-anchor="start" x="7.5" y="-495.8" font-family="Times,serif" font-size="14.00">document_template_id :integer</text>
<text text-anchor="start" x="7.5" y="-480.8" font-family="Times,serif" font-size="14.00">created_at :datetime</text>
<text text-anchor="start" x="7.5" y="-465.8" font-family="Times,serif" font-size="14.00">updated_at :datetime</text>
</g>
<!-- Manager -->
<g id="node2" class="node"><title>Manager</title>
<path fill="none" stroke="black" d="M157.5,-1415C157.5,-1415 264.5,-1415 264.5,-1415 270.5,-1415 276.5,-1421 276.5,-1427 276.5,-1427 276.5,-1509 276.5,-1509 276.5,-1515 270.5,-1521 264.5,-1521 264.5,-1521 157.5,-1521 157.5,-1521 151.5,-1521 145.5,-1515 145.5,-1509 145.5,-1509 145.5,-1427 145.5,-1427 145.5,-1421 151.5,-1415 157.5,-1415"/>
<text text-anchor="middle" x="211" y="-1505.8" font-family="Times,serif" font-size="14.00">Manager</text>
<polyline fill="none" stroke="black" points="145.5,-1498 276.5,-1498 "/>
<text text-anchor="start" x="153.5" y="-1482.8" font-family="Times,serif" font-size="14.00">id :integer</text>
<text text-anchor="start" x="153.5" y="-1467.8" font-family="Times,serif" font-size="14.00">company_id :integer</text>
<text text-anchor="start" x="153.5" y="-1452.8" font-family="Times,serif" font-size="14.00">name :text</text>
<text text-anchor="start" x="153.5" y="-1437.8" font-family="Times,serif" font-size="14.00">created_at :datetime</text>
<text text-anchor="start" x="153.5" y="-1422.8" font-family="Times,serif" font-size="14.00">updated_at :datetime</text>
</g>
<!-- Manager&#45;&gt;DocumentOrder -->
<g id="edge2" class="edge"><title>Manager&#45;&gt;DocumentOrder</title>
<path fill="none" stroke="#24de18" d="M209.735,-1404.55C207.885,-1337.51 203.44,-1227.95 193,-1134 173.229,-956.08 134.978,-750.44 111.941,-634.351"/>
<polygon fill="#24de18" stroke="#24de18" points="209.745,-1404.94 205.512,-1415.06 209.878,-1409.94 210.01,-1414.94 210.01,-1414.94 210.01,-1414.94 209.878,-1409.94 214.509,-1414.82 209.745,-1404.94 209.745,-1404.94"/>
<polygon fill="#24de18" stroke="#24de18" points="111.919,-634.239 114.38,-623.553 110.943,-629.335 109.967,-624.431 109.967,-624.431 109.967,-624.431 110.943,-629.335 105.553,-625.31 111.919,-634.239 111.919,-634.239"/>
</g>
<!-- User -->
<g id="node4" class="node"><title>User</title>
<path fill="none" stroke="black" d="M62,-1172C62,-1172 172,-1172 172,-1172 178,-1172 184,-1178 184,-1184 184,-1184 184,-1326 184,-1326 184,-1332 178,-1338 172,-1338 172,-1338 62,-1338 62,-1338 56,-1338 50,-1332 50,-1326 50,-1326 50,-1184 50,-1184 50,-1178 56,-1172 62,-1172"/>
<text text-anchor="middle" x="117" y="-1322.8" font-family="Times,serif" font-size="14.00">User</text>
<polyline fill="none" stroke="black" points="50,-1315 184,-1315 "/>
<text text-anchor="start" x="58" y="-1299.8" font-family="Times,serif" font-size="14.00">id :integer</text>
<text text-anchor="start" x="58" y="-1284.8" font-family="Times,serif" font-size="14.00">owner_id :integer</text>
<text text-anchor="start" x="58" y="-1269.8" font-family="Times,serif" font-size="14.00">owner_type :string</text>
<text text-anchor="start" x="58" y="-1254.8" font-family="Times,serif" font-size="14.00">password_digest :text</text>
<text text-anchor="start" x="58" y="-1239.8" font-family="Times,serif" font-size="14.00">role :text</text>
<text text-anchor="start" x="58" y="-1224.8" font-family="Times,serif" font-size="14.00">email :text</text>
<text text-anchor="start" x="58" y="-1209.8" font-family="Times,serif" font-size="14.00">active :boolean</text>
<text text-anchor="start" x="58" y="-1194.8" font-family="Times,serif" font-size="14.00">created_at :datetime</text>
<text text-anchor="start" x="58" y="-1179.8" font-family="Times,serif" font-size="14.00">updated_at :datetime</text>
</g>
<!-- Manager&#45;&gt;User -->
<g id="edge3" class="edge"><title>Manager&#45;&gt;User</title>
<path fill="none" stroke="#35bcca" d="M184.448,-1407.4C175.904,-1388.22 166.241,-1366.53 156.954,-1345.68"/>
<ellipse fill="none" stroke="#35bcca" cx="186.136" cy="-1411.19" rx="4.00002" ry="4.00002"/>
<ellipse fill="#35bcca" stroke="#35bcca" cx="155.315" cy="-1342" rx="4.00002" ry="4.00002"/>
</g>
<!-- Client -->
<g id="node6" class="node"><title>Client</title>
<path fill="none" stroke="black" d="M252,-1134.5C252,-1134.5 404,-1134.5 404,-1134.5 410,-1134.5 416,-1140.5 416,-1146.5 416,-1146.5 416,-1363.5 416,-1363.5 416,-1369.5 410,-1375.5 404,-1375.5 404,-1375.5 252,-1375.5 252,-1375.5 246,-1375.5 240,-1369.5 240,-1363.5 240,-1363.5 240,-1146.5 240,-1146.5 240,-1140.5 246,-1134.5 252,-1134.5"/>
<text text-anchor="middle" x="328" y="-1360.3" font-family="Times,serif" font-size="14.00">Client</text>
<polyline fill="none" stroke="black" points="240,-1352.5 416,-1352.5 "/>
<text text-anchor="start" x="248" y="-1337.3" font-family="Times,serif" font-size="14.00">id :integer</text>
<text text-anchor="start" x="248" y="-1322.3" font-family="Times,serif" font-size="14.00">manager_id :integer</text>
<text text-anchor="start" x="248" y="-1307.3" font-family="Times,serif" font-size="14.00">fio :text</text>
<text text-anchor="start" x="248" y="-1292.3" font-family="Times,serif" font-size="14.00">passport_number_series :text</text>
<text text-anchor="start" x="248" y="-1277.3" font-family="Times,serif" font-size="14.00">passport_number :text</text>
<text text-anchor="start" x="248" y="-1262.3" font-family="Times,serif" font-size="14.00">passport_given :text</text>
<text text-anchor="start" x="248" y="-1247.3" font-family="Times,serif" font-size="14.00">passport_given_date :date</text>
<text text-anchor="start" x="248" y="-1232.3" font-family="Times,serif" font-size="14.00">passport_given_code :text</text>
<text text-anchor="start" x="248" y="-1217.3" font-family="Times,serif" font-size="14.00">date_of_birth :date</text>
<text text-anchor="start" x="248" y="-1202.3" font-family="Times,serif" font-size="14.00">sex :boolean</text>
<text text-anchor="start" x="248" y="-1187.3" font-family="Times,serif" font-size="14.00">address :text</text>
<text text-anchor="start" x="248" y="-1172.3" font-family="Times,serif" font-size="14.00">phone :text</text>
<text text-anchor="start" x="248" y="-1157.3" font-family="Times,serif" font-size="14.00">created_at :datetime</text>
<text text-anchor="start" x="248" y="-1142.3" font-family="Times,serif" font-size="14.00">updated_at :datetime</text>
</g>
<!-- Manager&#45;&gt;Client -->
<g id="edge1" class="edge"><title>Manager&#45;&gt;Client</title>
<path fill="none" stroke="#2aee22" d="M243.923,-1407.63C247.989,-1400.29 252.26,-1392.59 256.631,-1384.71"/>
<ellipse fill="none" stroke="#2aee22" cx="241.861" cy="-1411.34" rx="4.00002" ry="4.00002"/>
<polygon fill="#2aee22" stroke="#2aee22" points="256.755,-1384.48 265.54,-1377.92 259.18,-1380.11 261.604,-1375.74 261.604,-1375.74 261.604,-1375.74 259.18,-1380.11 257.669,-1373.56 256.755,-1384.48 256.755,-1384.48"/>
</g>
<!-- DocumentTemplate -->
<g id="node3" class="node"><title>DocumentTemplate</title>
<path fill="none" stroke="black" d="M306.5,-1605.5C306.5,-1605.5 413.5,-1605.5 413.5,-1605.5 419.5,-1605.5 425.5,-1611.5 425.5,-1617.5 425.5,-1617.5 425.5,-1714.5 425.5,-1714.5 425.5,-1720.5 419.5,-1726.5 413.5,-1726.5 413.5,-1726.5 306.5,-1726.5 306.5,-1726.5 300.5,-1726.5 294.5,-1720.5 294.5,-1714.5 294.5,-1714.5 294.5,-1617.5 294.5,-1617.5 294.5,-1611.5 300.5,-1605.5 306.5,-1605.5"/>
<text text-anchor="middle" x="360" y="-1711.3" font-family="Times,serif" font-size="14.00">DocumentTemplate</text>
<polyline fill="none" stroke="black" points="294.5,-1703.5 425.5,-1703.5 "/>
<text text-anchor="start" x="302.5" y="-1688.3" font-family="Times,serif" font-size="14.00">id :integer</text>
<text text-anchor="start" x="302.5" y="-1673.3" font-family="Times,serif" font-size="14.00">name :text</text>
<text text-anchor="start" x="302.5" y="-1658.3" font-family="Times,serif" font-size="14.00">template_path :text</text>
<text text-anchor="start" x="302.5" y="-1643.3" font-family="Times,serif" font-size="14.00">document_type :text</text>
<text text-anchor="start" x="302.5" y="-1628.3" font-family="Times,serif" font-size="14.00">created_at :datetime</text>
<text text-anchor="start" x="302.5" y="-1613.3" font-family="Times,serif" font-size="14.00">updated_at :datetime</text>
</g>
<!-- CompanyDocumentData -->
<g id="node5" class="node"><title>CompanyDocumentData</title>
<path fill="none" stroke="black" d="M455.5,-1590.5C455.5,-1590.5 618.5,-1590.5 618.5,-1590.5 624.5,-1590.5 630.5,-1596.5 630.5,-1602.5 630.5,-1602.5 630.5,-1729.5 630.5,-1729.5 630.5,-1735.5 624.5,-1741.5 618.5,-1741.5 618.5,-1741.5 455.5,-1741.5 455.5,-1741.5 449.5,-1741.5 443.5,-1735.5 443.5,-1729.5 443.5,-1729.5 443.5,-1602.5 443.5,-1602.5 443.5,-1596.5 449.5,-1590.5 455.5,-1590.5"/>
<text text-anchor="middle" x="537" y="-1726.3" font-family="Times,serif" font-size="14.00">CompanyDocumentData</text>
<polyline fill="none" stroke="black" points="443.5,-1718.5 630.5,-1718.5 "/>
<text text-anchor="start" x="451.5" y="-1703.3" font-family="Times,serif" font-size="14.00">id :integer</text>
<text text-anchor="start" x="451.5" y="-1688.3" font-family="Times,serif" font-size="14.00">company_id :integer</text>
<text text-anchor="start" x="451.5" y="-1673.3" font-family="Times,serif" font-size="14.00">document_template_id :integer</text>
<text text-anchor="start" x="451.5" y="-1658.3" font-family="Times,serif" font-size="14.00">client_price :text</text>
<text text-anchor="start" x="451.5" y="-1643.3" font-family="Times,serif" font-size="14.00">cost :text</text>
<text text-anchor="start" x="451.5" y="-1628.3" font-family="Times,serif" font-size="14.00">active :boolean</text>
<text text-anchor="start" x="451.5" y="-1613.3" font-family="Times,serif" font-size="14.00">created_at :datetime</text>
<text text-anchor="start" x="451.5" y="-1598.3" font-family="Times,serif" font-size="14.00">updated_at :datetime</text>
</g>
<!-- Client&#45;&gt;DocumentOrder -->
<g id="edge6" class="edge"><title>Client&#45;&gt;DocumentOrder</title>
<path fill="none" stroke="#f5c482" d="M251.948,-1128.07C243.76,-1118.08 235.082,-1108.56 226,-1100 214.407,-1089.07 204.201,-1095.01 195,-1082 100.06,-947.8 86.7129,-749.63 88.1341,-634.392"/>
<ellipse fill="none" stroke="#f5c482" cx="254.478" cy="-1131.22" rx="4.00002" ry="4.00002"/>
<polygon fill="#f5c482" stroke="#f5c482" points="88.1374,-634.187 92.8007,-624.262 88.2193,-629.187 88.3013,-624.188 88.3013,-624.188 88.3013,-624.188 88.2193,-629.187 83.8019,-624.114 88.1374,-634.187 88.1374,-634.187"/>
</g>
<!-- VisaData -->
<g id="node7" class="node"><title>VisaData</title>
<path fill="none" stroke="black" d="M216.5,-0.5C216.5,-0.5 439.5,-0.5 439.5,-0.5 445.5,-0.5 451.5,-6.5 451.5,-12.5 451.5,-12.5 451.5,-1069.5 451.5,-1069.5 451.5,-1075.5 445.5,-1081.5 439.5,-1081.5 439.5,-1081.5 216.5,-1081.5 216.5,-1081.5 210.5,-1081.5 204.5,-1075.5 204.5,-1069.5 204.5,-1069.5 204.5,-12.5 204.5,-12.5 204.5,-6.5 210.5,-0.5 216.5,-0.5"/>
<text text-anchor="middle" x="328" y="-1066.3" font-family="Times,serif" font-size="14.00">VisaData</text>
<polyline fill="none" stroke="black" points="204.5,-1058.5 451.5,-1058.5 "/>
<text text-anchor="start" x="212.5" y="-1043.3" font-family="Times,serif" font-size="14.00">id :integer</text>
<text text-anchor="start" x="212.5" y="-1028.3" font-family="Times,serif" font-size="14.00">client_id :integer</text>
<text text-anchor="start" x="212.5" y="-1013.3" font-family="Times,serif" font-size="14.00">surname :text</text>
<text text-anchor="start" x="212.5" y="-998.3" font-family="Times,serif" font-size="14.00">surname_at_birth :text</text>
<text text-anchor="start" x="212.5" y="-983.3" font-family="Times,serif" font-size="14.00">name :text</text>
<text text-anchor="start" x="212.5" y="-968.3" font-family="Times,serif" font-size="14.00">patronymic_name :text</text>
<text text-anchor="start" x="212.5" y="-953.3" font-family="Times,serif" font-size="14.00">place_of_birth :text</text>
<text text-anchor="start" x="212.5" y="-938.3" font-family="Times,serif" font-size="14.00">country_of_birth :text</text>
<text text-anchor="start" x="212.5" y="-923.3" font-family="Times,serif" font-size="14.00">current_nationality :text</text>
<text text-anchor="start" x="212.5" y="-908.3" font-family="Times,serif" font-size="14.00">nationality_at_birth :text</text>
<text text-anchor="start" x="212.5" y="-893.3" font-family="Times,serif" font-size="14.00">marital_status :integer</text>
<text text-anchor="start" x="212.5" y="-878.3" font-family="Times,serif" font-size="14.00">marital_status_other :text</text>
<text text-anchor="start" x="212.5" y="-863.3" font-family="Times,serif" font-size="14.00">guardian_data :text</text>
<text text-anchor="start" x="212.5" y="-848.3" font-family="Times,serif" font-size="14.00">national_id :text</text>
<text text-anchor="start" x="212.5" y="-833.3" font-family="Times,serif" font-size="14.00">travel_document_type :integer</text>
<text text-anchor="start" x="212.5" y="-818.3" font-family="Times,serif" font-size="14.00">travel_document_type_other :text</text>
<text text-anchor="start" x="212.5" y="-803.3" font-family="Times,serif" font-size="14.00">travel_document_number :text</text>
<text text-anchor="start" x="212.5" y="-788.3" font-family="Times,serif" font-size="14.00">travel_document_date_of_issue :date</text>
<text text-anchor="start" x="212.5" y="-773.3" font-family="Times,serif" font-size="14.00">travel_document_valid_until :date</text>
<text text-anchor="start" x="212.5" y="-758.3" font-family="Times,serif" font-size="14.00">travel_document_issued_by :text</text>
<text text-anchor="start" x="212.5" y="-743.3" font-family="Times,serif" font-size="14.00">home_address_and_email :text</text>
<text text-anchor="start" x="212.5" y="-728.3" font-family="Times,serif" font-size="14.00">phone :text</text>
<text text-anchor="start" x="212.5" y="-713.3" font-family="Times,serif" font-size="14.00">residence_other_country :boolean</text>
<text text-anchor="start" x="212.5" y="-698.3" font-family="Times,serif" font-size="14.00">residence_document_type :text</text>
<text text-anchor="start" x="212.5" y="-683.3" font-family="Times,serif" font-size="14.00">residence_document_number :text</text>
<text text-anchor="start" x="212.5" y="-668.3" font-family="Times,serif" font-size="14.00">valid_until :date</text>
<text text-anchor="start" x="212.5" y="-653.3" font-family="Times,serif" font-size="14.00">current_occupation :text</text>
<text text-anchor="start" x="212.5" y="-638.3" font-family="Times,serif" font-size="14.00">employer_data :text</text>
<text text-anchor="start" x="212.5" y="-623.3" font-family="Times,serif" font-size="14.00">visa_aim :integer</text>
<text text-anchor="start" x="212.5" y="-608.3" font-family="Times,serif" font-size="14.00">visa_aim_other :text</text>
<text text-anchor="start" x="212.5" y="-593.3" font-family="Times,serif" font-size="14.00">country_of_destination :text</text>
<text text-anchor="start" x="212.5" y="-578.3" font-family="Times,serif" font-size="14.00">first_enter_country :text</text>
<text text-anchor="start" x="212.5" y="-563.3" font-family="Times,serif" font-size="14.00">quantity_of_entries :integer</text>
<text text-anchor="start" x="212.5" y="-548.3" font-family="Times,serif" font-size="14.00">duration_of_stay :text</text>
<text text-anchor="start" x="212.5" y="-533.3" font-family="Times,serif" font-size="14.00">visa_given :boolean</text>
<text text-anchor="start" x="212.5" y="-518.3" font-family="Times,serif" font-size="14.00">visa_given1_from :date</text>
<text text-anchor="start" x="212.5" y="-503.3" font-family="Times,serif" font-size="14.00">visa_given1_to :date</text>
<text text-anchor="start" x="212.5" y="-488.3" font-family="Times,serif" font-size="14.00">visa_given2_from :date</text>
<text text-anchor="start" x="212.5" y="-473.3" font-family="Times,serif" font-size="14.00">visa_given2_to :date</text>
<text text-anchor="start" x="212.5" y="-458.3" font-family="Times,serif" font-size="14.00">visa_given3_from :date</text>
<text text-anchor="start" x="212.5" y="-443.3" font-family="Times,serif" font-size="14.00">visa_given3_to :date</text>
<text text-anchor="start" x="212.5" y="-428.3" font-family="Times,serif" font-size="14.00">visa_given4_from :date</text>
<text text-anchor="start" x="212.5" y="-413.3" font-family="Times,serif" font-size="14.00">visa_given4_to :date</text>
<text text-anchor="start" x="212.5" y="-398.3" font-family="Times,serif" font-size="14.00">fingerprints :boolean</text>
<text text-anchor="start" x="212.5" y="-383.3" font-family="Times,serif" font-size="14.00">fingerprints_date :date</text>
<text text-anchor="start" x="212.5" y="-368.3" font-family="Times,serif" font-size="14.00">entry_permit :text</text>
<text text-anchor="start" x="212.5" y="-353.3" font-family="Times,serif" font-size="14.00">entry_permit_from :date</text>
<text text-anchor="start" x="212.5" y="-338.3" font-family="Times,serif" font-size="14.00">entry_permit_to :date</text>
<text text-anchor="start" x="212.5" y="-323.3" font-family="Times,serif" font-size="14.00">entry_date :date</text>
<text text-anchor="start" x="212.5" y="-308.3" font-family="Times,serif" font-size="14.00">departure_date :date</text>
<text text-anchor="start" x="212.5" y="-293.3" font-family="Times,serif" font-size="14.00">inviter_name :text</text>
<text text-anchor="start" x="212.5" y="-278.3" font-family="Times,serif" font-size="14.00">inviter_address_and_email :text</text>
<text text-anchor="start" x="212.5" y="-263.3" font-family="Times,serif" font-size="14.00">inviter_phone :text</text>
<text text-anchor="start" x="212.5" y="-248.3" font-family="Times,serif" font-size="14.00">inviter_company_name_and_address :text</text>
<text text-anchor="start" x="212.5" y="-233.3" font-family="Times,serif" font-size="14.00">sponsor :integer</text>
<text text-anchor="start" x="212.5" y="-218.3" font-family="Times,serif" font-size="14.00">sponsor_other :text</text>
<text text-anchor="start" x="212.5" y="-203.3" font-family="Times,serif" font-size="14.00">means1 :integer</text>
<text text-anchor="start" x="212.5" y="-188.3" font-family="Times,serif" font-size="14.00">means1_other :text</text>
<text text-anchor="start" x="212.5" y="-173.3" font-family="Times,serif" font-size="14.00">means2 :integer</text>
<text text-anchor="start" x="212.5" y="-158.3" font-family="Times,serif" font-size="14.00">means2_other :text</text>
<text text-anchor="start" x="212.5" y="-143.3" font-family="Times,serif" font-size="14.00">nearest_surname :text</text>
<text text-anchor="start" x="212.5" y="-128.3" font-family="Times,serif" font-size="14.00">nearest_name :text</text>
<text text-anchor="start" x="212.5" y="-113.3" font-family="Times,serif" font-size="14.00">nearest_date_of_birth :date</text>
<text text-anchor="start" x="212.5" y="-98.3" font-family="Times,serif" font-size="14.00">nearest_nationality :text</text>
<text text-anchor="start" x="212.5" y="-83.3" font-family="Times,serif" font-size="14.00">nearest_passport_number :text</text>
<text text-anchor="start" x="212.5" y="-68.3" font-family="Times,serif" font-size="14.00">nearest :integer</text>
<text text-anchor="start" x="212.5" y="-53.3" font-family="Times,serif" font-size="14.00">place :text</text>
<text text-anchor="start" x="212.5" y="-38.3" font-family="Times,serif" font-size="14.00">date :date</text>
<text text-anchor="start" x="212.5" y="-23.3" font-family="Times,serif" font-size="14.00">created_at :datetime</text>
<text text-anchor="start" x="212.5" y="-8.3" font-family="Times,serif" font-size="14.00">updated_at :datetime</text>
</g>
<!-- Client&#45;&gt;VisaData -->
<g id="edge5" class="edge"><title>Client&#45;&gt;VisaData</title>
<path fill="none" stroke="#9c4b9a" d="M328,-1126.24C328,-1114.69 328,-1102.6 328,-1090.05"/>
<ellipse fill="none" stroke="#9c4b9a" cx="328" cy="-1130.43" rx="4" ry="4"/>
<ellipse fill="#9c4b9a" stroke="#9c4b9a" cx="328" cy="-1085.74" rx="4" ry="4"/>
<text text-anchor="middle" x="354" y="-1104.3" font-family="Times,serif" font-size="14.00">visa_data</text>
</g>
<!-- ForeignPassportData -->
<g id="node8" class="node"><title>ForeignPassportData</title>
<path fill="none" stroke="black" d="M482,-360.5C482,-360.5 640,-360.5 640,-360.5 646,-360.5 652,-366.5 652,-372.5 652,-372.5 652,-709.5 652,-709.5 652,-715.5 646,-721.5 640,-721.5 640,-721.5 482,-721.5 482,-721.5 476,-721.5 470,-715.5 470,-709.5 470,-709.5 470,-372.5 470,-372.5 470,-366.5 476,-360.5 482,-360.5"/>
<text text-anchor="middle" x="561" y="-706.3" font-family="Times,serif" font-size="14.00">ForeignPassportData</text>
<polyline fill="none" stroke="black" points="470,-698.5 652,-698.5 "/>
<text text-anchor="start" x="478" y="-683.3" font-family="Times,serif" font-size="14.00">id :integer</text>
<text text-anchor="start" x="478" y="-668.3" font-family="Times,serif" font-size="14.00">client_id :integer</text>
<text text-anchor="start" x="478" y="-653.3" font-family="Times,serif" font-size="14.00">fio_changed :text</text>
<text text-anchor="start" x="478" y="-638.3" font-family="Times,serif" font-size="14.00">place_of_birth :text</text>
<text text-anchor="start" x="478" y="-623.3" font-family="Times,serif" font-size="14.00">registration :text</text>
<text text-anchor="start" x="478" y="-608.3" font-family="Times,serif" font-size="14.00">citizenship :text</text>
<text text-anchor="start" x="478" y="-593.3" font-family="Times,serif" font-size="14.00">citizenship_other :text</text>
<text text-anchor="start" x="478" y="-578.3" font-family="Times,serif" font-size="14.00">aim :text</text>
<text text-anchor="start" x="478" y="-563.3" font-family="Times,serif" font-size="14.00">previous_passport :integer</text>
<text text-anchor="start" x="478" y="-548.3" font-family="Times,serif" font-size="14.00">secret_access :text</text>
<text text-anchor="start" x="478" y="-533.3" font-family="Times,serif" font-size="14.00">contract_liability :text</text>
<text text-anchor="start" x="478" y="-518.3" font-family="Times,serif" font-size="14.00">military_service :text</text>
<text text-anchor="start" x="478" y="-503.3" font-family="Times,serif" font-size="14.00">conviction :text</text>
<text text-anchor="start" x="478" y="-488.3" font-family="Times,serif" font-size="14.00">court_obligations :text</text>
<text text-anchor="start" x="478" y="-473.3" font-family="Times,serif" font-size="14.00">children :text</text>
<text text-anchor="start" x="478" y="-458.3" font-family="Times,serif" font-size="14.00">employment_history :text</text>
<text text-anchor="start" x="478" y="-443.3" font-family="Times,serif" font-size="14.00">old_passport_series :text</text>
<text text-anchor="start" x="478" y="-428.3" font-family="Times,serif" font-size="14.00">old_passport_number :text</text>
<text text-anchor="start" x="478" y="-413.3" font-family="Times,serif" font-size="14.00">old_passport_given :text</text>
<text text-anchor="start" x="478" y="-398.3" font-family="Times,serif" font-size="14.00">old_passport_given_date :date</text>
<text text-anchor="start" x="478" y="-383.3" font-family="Times,serif" font-size="14.00">created_at :datetime</text>
<text text-anchor="start" x="478" y="-368.3" font-family="Times,serif" font-size="14.00">updated_at :datetime</text>
</g>
<!-- Client&#45;&gt;ForeignPassportData -->
<g id="edge4" class="edge"><title>Client&#45;&gt;ForeignPassportData</title>
<path fill="none" stroke="#95a87e" d="M420.954,-1148.62C435.877,-1127.63 449.757,-1104.95 460,-1082 509.578,-970.901 534.826,-836.448 547.68,-729.498"/>
<ellipse fill="none" stroke="#95a87e" cx="418.418" cy="-1152.13" rx="4.00002" ry="4.00002"/>
<ellipse fill="#95a87e" stroke="#95a87e" cx="548.152" cy="-725.494" rx="4.00001" ry="4.00001"/>
<text text-anchor="middle" x="510.5" y="-1104.3" font-family="Times,serif" font-size="14.00">foreign_passport_data</text>
</g>
<!-- Company -->
<g id="node9" class="node"><title>Company</title>
<path fill="none" stroke="black" d="M157.5,-1560.5C157.5,-1560.5 264.5,-1560.5 264.5,-1560.5 270.5,-1560.5 276.5,-1566.5 276.5,-1572.5 276.5,-1572.5 276.5,-1759.5 276.5,-1759.5 276.5,-1765.5 270.5,-1771.5 264.5,-1771.5 264.5,-1771.5 157.5,-1771.5 157.5,-1771.5 151.5,-1771.5 145.5,-1765.5 145.5,-1759.5 145.5,-1759.5 145.5,-1572.5 145.5,-1572.5 145.5,-1566.5 151.5,-1560.5 157.5,-1560.5"/>
<text text-anchor="middle" x="211" y="-1756.3" font-family="Times,serif" font-size="14.00">Company</text>
<polyline fill="none" stroke="black" points="145.5,-1748.5 276.5,-1748.5 "/>
<text text-anchor="start" x="153.5" y="-1733.3" font-family="Times,serif" font-size="14.00">id :integer</text>
<text text-anchor="start" x="153.5" y="-1718.3" font-family="Times,serif" font-size="14.00">name :text</text>
<text text-anchor="start" x="153.5" y="-1703.3" font-family="Times,serif" font-size="14.00">paid_before :date</text>
<text text-anchor="start" x="153.5" y="-1688.3" font-family="Times,serif" font-size="14.00">tin :text</text>
<text text-anchor="start" x="153.5" y="-1673.3" font-family="Times,serif" font-size="14.00">address :text</text>
<text text-anchor="start" x="153.5" y="-1658.3" font-family="Times,serif" font-size="14.00">bank_details :text</text>
<text text-anchor="start" x="153.5" y="-1643.3" font-family="Times,serif" font-size="14.00">phone :text</text>
<text text-anchor="start" x="153.5" y="-1628.3" font-family="Times,serif" font-size="14.00">email :text</text>
<text text-anchor="start" x="153.5" y="-1613.3" font-family="Times,serif" font-size="14.00">repr_i :text</text>
<text text-anchor="start" x="153.5" y="-1598.3" font-family="Times,serif" font-size="14.00">repr_r :text</text>
<text text-anchor="start" x="153.5" y="-1583.3" font-family="Times,serif" font-size="14.00">created_at :datetime</text>
<text text-anchor="start" x="153.5" y="-1568.3" font-family="Times,serif" font-size="14.00">updated_at :datetime</text>
</g>
<!-- Company&#45;&gt;DocumentOrder -->
<g id="edge9" class="edge"><title>Company&#45;&gt;DocumentOrder</title>
<path fill="none" stroke="#295caf" d="M139.417,-1575.71C101.048,-1521.5 58.2052,-1448.88 41,-1376 -21.2535,-1112.29 35.011,-789.443 69.9926,-634.122"/>
<polygon fill="#295caf" stroke="#295caf" points="139.467,-1575.77 141.628,-1586.52 142.377,-1579.84 145.287,-1583.91 145.287,-1583.91 145.287,-1583.91 142.377,-1579.84 148.946,-1581.29 139.467,-1575.77 139.467,-1575.77"/>
<polygon fill="#295caf" stroke="#295caf" points="70.0461,-633.887 76.6524,-625.135 71.1553,-629.012 72.2645,-624.136 72.2645,-624.136 72.2645,-624.136 71.1553,-629.012 67.8767,-623.138 70.0461,-633.887 70.0461,-633.887"/>
</g>
<!-- Company&#45;&gt;Manager -->
<g id="edge7" class="edge"><title>Company&#45;&gt;Manager</title>
<path fill="none" stroke="#6e3f40" d="M211,-1552.2C211,-1545.2 211,-1538.3 211,-1531.65"/>
<ellipse fill="none" stroke="#6e3f40" cx="211" cy="-1556.4" rx="4" ry="4"/>
<polygon fill="#6e3f40" stroke="#6e3f40" points="211,-1531.43 215.5,-1521.43 211,-1526.43 211,-1521.43 211,-1521.43 211,-1521.43 211,-1526.43 206.5,-1521.43 211,-1531.43 211,-1531.43"/>
</g>
<!-- Company&#45;&gt;User -->
<g id="edge11" class="edge"><title>Company&#45;&gt;User</title>
<path fill="none" stroke="#04ef97" d="M146.882,-1552.99C142.661,-1542.72 138.932,-1532.31 136,-1522 119.796,-1465.04 115.041,-1398.6 114.339,-1346.36"/>
<ellipse fill="none" stroke="#04ef97" cx="148.477" cy="-1556.75" rx="4.00002" ry="4.00002"/>
<ellipse fill="#04ef97" stroke="#04ef97" cx="114.299" cy="-1342.11" rx="4" ry="4"/>
</g>
<!-- Company&#45;&gt;Client -->
<g id="edge8" class="edge"><title>Company&#45;&gt;Client</title>
<path fill="none" stroke="#21a87b" d="M273.903,-1551.16C278.036,-1541.45 281.812,-1531.66 285,-1522 299.287,-1478.73 308.927,-1429.87 315.388,-1385.95"/>
<polygon fill="#21a87b" stroke="#21a87b" points="273.855,-1551.27 265.718,-1558.62 271.847,-1555.85 269.84,-1560.43 269.84,-1560.43 269.84,-1560.43 271.847,-1555.85 273.961,-1562.24 273.855,-1551.27 273.855,-1551.27"/>
<polygon fill="#21a87b" stroke="#21a87b" points="315.427,-1385.68 321.296,-1376.42 316.134,-1380.73 316.841,-1375.78 316.841,-1375.78 316.841,-1375.78 316.134,-1380.73 312.386,-1375.14 315.427,-1385.68 315.427,-1385.68"/>
</g>
<!-- CompanyDocumentDatum -->
<g id="node11" class="node"><title>CompanyDocumentDatum</title>
<ellipse fill="none" stroke="black" cx="440" cy="-1468" rx="106.386" ry="18"/>
<text text-anchor="middle" x="440" y="-1464.3" font-family="Times,serif" font-size="14.00">CompanyDocumentDatum</text>
</g>
<!-- Company&#45;&gt;CompanyDocumentDatum -->
<g id="edge10" class="edge"><title>Company&#45;&gt;CompanyDocumentDatum</title>
<path fill="none" stroke="#4ba709" d="M282.611,-1562.14C283.403,-1561.42 284.2,-1560.7 285,-1560 297.833,-1548.7 304.119,-1550.42 319,-1542 348.159,-1525.5 380.639,-1505.83 404.6,-1491.07"/>
<ellipse fill="none" stroke="#4ba709" cx="279.513" cy="-1565.11" rx="4.00002" ry="4.00002"/>
<polygon fill="#4ba709" stroke="#4ba709" points="404.834,-1490.93 415.707,-1489.5 409.088,-1488.3 413.341,-1485.67 413.341,-1485.67 413.341,-1485.67 409.088,-1488.3 410.976,-1481.84 404.834,-1490.93 404.834,-1490.93"/>
</g>
<!-- CompanyClaim -->
<g id="node10" class="node"><title>CompanyClaim</title>
<path fill="none" stroke="black" d="M660.5,-1598C660.5,-1598 767.5,-1598 767.5,-1598 773.5,-1598 779.5,-1604 779.5,-1610 779.5,-1610 779.5,-1722 779.5,-1722 779.5,-1728 773.5,-1734 767.5,-1734 767.5,-1734 660.5,-1734 660.5,-1734 654.5,-1734 648.5,-1728 648.5,-1722 648.5,-1722 648.5,-1610 648.5,-1610 648.5,-1604 654.5,-1598 660.5,-1598"/>
<text text-anchor="middle" x="714" y="-1718.8" font-family="Times,serif" font-size="14.00">CompanyClaim</text>
<polyline fill="none" stroke="black" points="648.5,-1711 779.5,-1711 "/>
<text text-anchor="start" x="656.5" y="-1695.8" font-family="Times,serif" font-size="14.00">id :integer</text>
<text text-anchor="start" x="656.5" y="-1680.8" font-family="Times,serif" font-size="14.00">name :text</text>
<text text-anchor="start" x="656.5" y="-1665.8" font-family="Times,serif" font-size="14.00">email :text</text>
<text text-anchor="start" x="656.5" y="-1650.8" font-family="Times,serif" font-size="14.00">phone :text</text>
<text text-anchor="start" x="656.5" y="-1635.8" font-family="Times,serif" font-size="14.00">status :integer</text>
<text text-anchor="start" x="656.5" y="-1620.8" font-family="Times,serif" font-size="14.00">created_at :datetime</text>
<text text-anchor="start" x="656.5" y="-1605.8" font-family="Times,serif" font-size="14.00">updated_at :datetime</text>
</g>
</g>
</svg>
